<?xml version="1.0" encoding="utf-8"?>
<!-- Generator: Adobe Illustrator 24.0.2, SVG Export Plug-In . SVG Version: 6.00 Build 0)  -->
<svg version="1.1" id="Capa_1" xmlns="http://www.w3.org/2000/svg" xmlns:xlink="http://www.w3.org/1999/xlink" x="0px" y="0px" width="2em" height="15em" viewBox="0 0 24 176.2" style="enable-background:new 0 0 24 176.2;" xml:space="preserve">
	<rect x="8.7" y="11.6" width="6.6" height="6.6"/>
	<rect x="8.7" y="20.4" width="6.6" height="6.6"/>
	<rect x="8.7" y="29.1" width="6.6" height="6.6"/>
	<rect x="8.7" y="37.8" width="6.6" height="6.6"/>
	<rect x="8.7" y="2.9" width="6.6" height="6.6"/>
	<rect x="8.7" y="46.5" width="6.6" height="6.6"/>
	<rect x="8.7" y="55.2" width="6.6" height="6.6"/>
	<rect x="8.7" y="63.9" width="6.6" height="6.6"/>
	<rect x="8.7" y="72.7" width="6.6" height="6.6"/>
	<rect x="8.7" y="90.1" width="6.6" height="6.6"/>
	<rect x="8.7" y="98.8" width="6.6" height="6.6"/>
	<rect x="8.7" y="107.5" width="6.6" height="6.6"/>
	<rect x="8.7" y="116.2" width="6.6" height="6.6"/>
	<rect x="8.7" y="81.4" width="6.6" height="6.6"/>
	<rect x="8.7" y="124.9" width="6.6" height="6.6"/>
	<rect x="8.7" y="133.7" width="6.6" height="6.6"/>
	<rect x="8.7" y="151.1" width="6.6" height="6.6"/>
	<rect x="8.7" y="159.8" width="6.6" height="6.6"/>
	<rect x="8.7" y="168.5" width="6.6" height="6.6"/>
	<rect x="8.7" y="142.4" width="6.6" height="6.6"/>
</svg>