<?xml version="1.0" encoding="utf-8"?>
<!DOCTYPE svg PUBLIC "-//W3C//DTD SVG 1.1//EN" "http://www.w3.org/Graphics/SVG/1.1/DTD/svg11.dtd">
<svg version="1.1" id="Capa_1" width="2em" height="3em" xmlns="http://www.w3.org/2000/svg" xmlns:xlink="http://www.w3.org/1999/xlink" viewBox="0 0 496.016 496.016" style="enable-background:new 0 0 496.016 496.016;" xml:space="preserve">
    <path d="M495.912,195.474c-0.017-0.327-0.055-0.653-0.112-0.976c-0.071-0.344-0.17-0.681-0.296-1.008
    c-0.122-0.373-0.272-0.737-0.448-1.088c-0.052-0.174-0.113-0.345-0.184-0.512c-0.056-0.104-0.168-0.152-0.232-0.256
    c-0.631-0.859-1.389-1.617-2.248-2.248c-0.104-0.064-0.152-0.176-0.256-0.232L397,132.074c-3.789-2.273-8.703-1.045-10.976,2.744
    c-2.273,3.789-1.045,8.703,2.744,10.976l83.696,50.216L248.016,330.682L23.568,196.01l83.696-50.216
    c3.789-2.273,5.017-7.187,2.744-10.976c-2.273-3.789-7.187-5.017-10.976-2.744l-95.136,57.08c-0.096,0.056-0.144,0.16-0.24,0.224
    c-0.279,0.192-0.546,0.4-0.8,0.624c-0.31,0.273-0.602,0.567-0.872,0.88c-0.218,0.238-0.421,0.489-0.608,0.752
    c-0.064,0.104-0.176,0.152-0.232,0.256c-0.071,0.167-0.132,0.338-0.184,0.512c-0.176,0.351-0.326,0.715-0.448,1.088
    c-0.126,0.327-0.225,0.664-0.296,1.008c-0.057,0.323-0.095,0.649-0.112,0.976c0,0.184-0.104,0.344-0.104,0.536v256
    c0,13.255,10.745,24,24,24h448.016c13.255,0,24-10.745,24-24v-256C496.016,195.818,495.92,195.658,495.912,195.474z
        M480.016,452.01c0,4.418-3.582,8-8,8h-448c-4.418,0-8-3.582-8-8V210.138l227.88,136.728c2.535,1.523,5.705,1.523,8.24,0
    l227.88-136.728V452.01z" />
    <path d="M248.016,228.01c4.418,0,8-3.582,8-8s-3.582-8-8-8c-48.601-0.455-87.631-40.223-87.176-88.824
    c0.455-48.601,40.223-87.631,88.824-87.176c48.721,2.022,86.991,42.441,86.352,91.2v52.8c0,4.418-3.582,8-8,8h-8
    c-4.418,0-8-3.582-8-8v-88c0-4.418-3.582-8-8-8c-3.684,0.031-6.856,2.608-7.64,6.208c-23.077-26.773-63.489-29.769-90.262-6.692
    c-26.773,23.077-29.769,63.489-6.692,90.262s63.489,29.769,90.262,6.692c2.254-1.943,4.37-4.041,6.332-6.278v5.808
    c0,13.255,10.745,24,24,24h8c13.255,0,24-10.745,24-24v-52.8c0.602-57.465-44.631-104.977-102.056-107.2
    c-57.438-0.537-104.435,45.59-104.972,103.028C144.451,180.476,190.578,227.474,248.016,228.01z M248.016,180.01
    c-26.51,0-48-21.49-48-48s21.49-48,48-48c26.51,0,48,21.49,48,48C295.99,158.509,274.515,179.984,248.016,180.01z" />
    <path d="M56.016,428.01h-8v-24c0-4.418-3.582-8-8-8s-8,3.582-8,8v32c0,4.418,3.582,8,8,8h16c4.418,0,8-3.582,8-8
    S60.434,428.01,56.016,428.01z" />
    <path d="M104.016,428.01h-16c-4.418,0-8,3.582-8,8s3.582,8,8,8h16c4.418,0,8-3.582,8-8S108.434,428.01,104.016,428.01z" />
</svg>